<svg width="72" height="72" viewBox="0 0 72 72" fill="none" xmlns="http://www.w3.org/2000/svg">
<g id="Group">
<path id="Vector" d="M37.8016 71.4614H33.3547C32.4863 71.3535 31.618 71.2614 30.7523 71.1377C24.1661 70.1983 18.2588 67.6723 13.125 63.4358C6.35465 57.8521 2.13664 50.7344 0.55521 42.0879C0.313128 40.7722 0.181561 39.4381 0 38.1146C0 36.6331 0 35.1491 0 33.6676C0.0421012 33.444 0.0920964 33.2203 0.123672 32.994C0.339441 31.5073 0.460482 30.0022 0.781503 28.5366C2.82341 19.2006 7.81767 11.7987 15.6959 6.43606C23.4635 1.15236 32.089 -0.668515 41.3539 0.794502C48.0269 1.84703 53.9369 4.65729 58.9838 9.15159C66.7462 16.0667 70.8405 24.7553 71.1326 35.1543C71.3221 41.88 69.6827 48.1952 66.1857 53.9525C60.5547 63.2201 52.3844 68.9011 41.7039 70.9167C40.4145 71.1588 39.1015 71.2824 37.799 71.4614H37.8016ZM35.5966 5.05462C18.6219 5.03357 4.74165 18.9059 4.73902 35.8885C4.73902 52.8447 18.5351 66.6645 35.5255 66.725C52.4791 66.7855 66.3778 52.9263 66.4173 35.9253C66.4567 18.9585 52.5949 5.0783 35.5966 5.05725V5.05462Z" fill="#CD3833"/>
<path id="Vector_2" d="M33.2099 26.4131C33.2099 23.4028 33.2678 20.3926 33.1889 17.3824C33.1415 15.522 34.344 14.5563 35.5597 14.5511C36.8411 14.5432 37.9831 15.572 37.9647 17.3508C37.9068 22.8845 37.9516 28.4182 37.9305 33.9518C37.9305 34.5176 38.0805 34.8728 38.5278 35.228C41.9591 37.9436 45.3719 40.6801 48.7821 43.422C49.9215 44.3377 50.1214 45.8138 49.2768 46.8585C48.4216 47.9163 46.9796 48.0347 45.8113 47.1085C43.3984 45.1955 41.0013 43.2641 38.5989 41.338C37.1543 40.1802 35.7123 39.0145 34.2572 37.8699C33.5283 37.2962 33.1941 36.5779 33.1994 35.649C33.2178 32.5704 33.2073 29.4891 33.2073 26.4105L33.2099 26.4131Z" fill="#CD3833"/>
</g>
</svg>
