<svg width="72" height="72" viewBox="0 0 72 72" fill="none" xmlns="http://www.w3.org/2000/svg">
<g id="Group">
<g id="Group_2">
<path id="Vector" d="M35.886 18.3983C36.0755 18.5483 36.2755 18.6851 36.4518 18.8483C42.3722 24.2741 48.2901 29.6999 54.2079 35.1257C54.3106 35.2204 54.4079 35.3177 54.5105 35.4098C54.9052 35.7598 55.1131 36.1703 54.8947 36.6992C54.6789 37.2255 54.2448 37.3728 53.7185 37.3675C52.7502 37.3623 51.7792 37.3675 50.8109 37.3675C50.3136 37.3675 49.8136 37.3675 49.2453 37.3675C49.2453 37.6175 49.2453 37.8201 49.2453 38.0201C49.2453 41.1882 49.2558 44.3537 49.2426 47.5218C49.2321 50.0742 47.7112 52.0556 45.343 52.6108C44.9088 52.7134 44.4536 52.7503 44.0063 52.7503C38.4858 52.7582 32.9653 52.7608 27.4447 52.7555C24.3608 52.7529 22.1979 50.5794 22.19 47.485C22.1847 44.3353 22.19 41.1856 22.19 38.0359C22.19 37.8333 22.19 37.628 22.19 37.3675C21.2927 37.3675 20.4507 37.3675 19.6086 37.3675C18.8824 37.3675 18.1562 37.3728 17.4273 37.3675C16.7668 37.3623 16.4116 37.1439 16.2327 36.6545C16.0353 36.1124 16.2853 35.7282 16.6721 35.3783C22.0321 30.5235 27.3895 25.6634 32.7521 20.8086C33.6494 19.9955 34.5625 19.2035 35.4676 18.4009C35.6071 18.4009 35.7439 18.4009 35.8834 18.4009L35.886 18.3983ZM18.3588 35.8624C19.8455 35.8624 21.1717 35.8624 22.4978 35.8624C23.4925 35.8624 23.6898 36.0545 23.6898 37.0386C23.6898 40.4646 23.6872 43.8906 23.6951 47.3166C23.6951 47.7297 23.7056 48.1533 23.8003 48.5533C24.2003 50.2321 25.5818 51.253 27.4421 51.2557C32.339 51.2609 37.2359 51.2583 42.1354 51.2557C42.8959 51.2557 43.659 51.2767 44.4194 51.2346C46.0429 51.1478 47.3349 50.0374 47.6691 48.4454C47.7507 48.0613 47.7428 47.6534 47.7428 47.2587C47.748 43.7985 47.7428 40.3357 47.748 36.8755C47.748 36.1282 48.0033 35.8703 48.74 35.8624C49.2584 35.8572 49.7794 35.8624 50.2978 35.8624C51.0819 35.8624 51.8687 35.8624 52.8081 35.8624C47.0244 30.5577 41.3592 25.3634 35.686 20.1587C29.9208 25.3845 24.2056 30.5656 18.3614 35.8624H18.3588Z" fill="#CD3833"/>
<path id="Vector_2" d="M27.8026 36.8755C27.792 34.7573 29.0761 32.8759 30.8102 32.3812C32.01 32.0391 33.1362 32.3233 34.2309 32.8153C34.715 33.0337 35.1755 33.4758 35.6544 33.4863C36.1123 33.4942 36.557 33.0022 37.0464 32.8627C37.8174 32.6417 38.6252 32.3891 39.412 32.3996C41.396 32.4285 42.9353 33.9784 43.2642 36.0782C43.5537 37.9307 42.8932 39.5173 41.8775 40.9882C40.4829 43.0091 38.6462 44.58 36.6385 45.9588C35.9833 46.4114 35.2387 46.443 34.5887 45.9851C32.3416 44.3984 30.3076 42.5881 28.8656 40.2041C28.2315 39.1542 27.8315 38.0227 27.8052 36.8781L27.8026 36.8755ZM41.8328 36.8886C41.8275 36.786 41.8249 36.6124 41.8065 36.4413C41.5881 34.4705 40.0566 33.4285 38.1805 34.0363C37.499 34.2573 36.8464 34.6047 36.2281 34.9757C35.7597 35.2572 35.415 35.2388 34.9492 34.9546C34.2625 34.5362 33.5415 34.1257 32.781 33.8837C31.3075 33.4127 30.176 33.9679 29.6024 35.3993C29.405 35.8966 29.3129 36.4755 29.3314 37.0123C29.3735 38.3674 30.0655 39.4779 30.8575 40.5172C31.9232 41.9171 33.2073 43.0986 34.6045 44.159C35.6939 44.9852 35.4334 45.0221 36.557 44.1853C38.1858 42.9696 39.6909 41.6198 40.8145 39.9041C41.3986 39.0121 41.8275 38.0569 41.8328 36.8886Z" fill="#CD3833"/>
</g>
<path id="Vector_3" d="M37.8016 71.1537H33.3547C32.4863 71.0459 31.618 70.9538 30.7523 70.8301C24.1661 69.8907 18.2588 67.3646 13.125 63.1282C6.35728 57.5445 2.13926 50.4268 0.555206 41.7803C0.315755 40.4646 0.181561 39.1305 0 37.807C0 36.3255 0 34.8415 0 33.36C0.0421012 33.1364 0.0920887 32.9127 0.123665 32.6864C0.339433 31.1997 0.460474 29.6946 0.781496 28.2289C2.8234 18.893 7.81502 11.4911 15.6958 6.12845C23.4635 0.844745 32.0864 -0.976132 41.3513 0.486884C48.0243 1.53941 53.9343 4.34966 58.9811 8.84397C66.7435 15.7591 70.8379 24.4477 71.13 34.8467C71.3194 41.5724 69.6801 47.8876 66.1831 53.6449C60.5521 62.9124 52.3818 68.5935 41.7012 70.6091C40.4119 70.8511 39.0988 70.9748 37.7963 71.1537H37.8016ZM35.5966 4.747C18.6219 4.72595 4.74165 18.5983 4.73902 35.5809C4.73902 52.5371 18.5351 66.3568 35.5255 66.4174C52.4791 66.4779 66.3778 52.6187 66.4173 35.6177C66.4567 18.6509 52.5949 4.77068 35.5966 4.74963V4.747Z" fill="#CD3833"/>
</g>
</svg>
