<svg width="72" height="72" viewBox="0 0 72 72" fill="none" xmlns="http://www.w3.org/2000/svg">
<g id="Group">
<path id="Vector" d="M29.5918 54.0276C30.0865 54.2355 30.4786 54.1987 30.9943 54.3539C31.7732 54.5855 32.5099 54.6328 33.0573 53.9381C33.6282 53.2119 33.4098 52.4936 32.9652 51.7568C32.4889 50.97 32.131 50.178 31.8889 49.3939" fill="#CD3833"/>
<path id="Vector_2" d="M39.4013 22.136C39.1092 21.0677 39.1013 20.0572 39.1855 18.7916C39.3013 17.0575 38.3462 16.3971 36.6805 16.9838C33.0125 18.2785 30.0548 20.5203 27.8287 23.7174C25.7263 26.7355 24.7106 30.1142 24.587 33.9506C24.3764 33.727 24.2922 33.6691 24.2528 33.5928C23.9081 32.8876 23.3923 32.4376 22.5635 32.4718C21.753 32.506 21.382 33.0718 21.0662 33.7164C20.1874 35.5084 19.6901 37.4003 19.6585 39.3975C19.5874 43.6023 22.0504 47.8151 25.2027 50.7332L26.7025 47.9887C24.2265 45.61 22.2845 40.9105 23.1134 37.3792C23.8107 37.716 24.4764 38.1292 25.2001 38.3686C27.2104 39.0317 28.1945 38.2055 27.8866 36.1162C27.4551 33.1691 27.9235 30.3668 29.1628 27.6854C30.5522 24.6831 33.1782 22.036 36.028 20.7808C36.1306 21.4255 36.2043 21.9728 36.3069 22.5175C36.5095 23.5858 37.1778 24.9357 37.641 25.8514" fill="#CD3833"/>
<path id="Vector_3" d="M41.1461 29.9563C41.7223 30.4299 42.3144 30.8852 42.9459 31.272C49.7058 35.4005 49.4242 42.463 44.5905 47.5335C44.0379 48.1124 43.3959 48.6045 42.8091 49.1255C42.7144 47.6572 42.7854 46.2705 42.5065 44.9575C41.8486 41.8472 39.9962 39.4738 37.5806 37.5319L36.186 40.4974C39.2805 43.055 41.025 47.2625 38.1122 51.7437C37.6227 52.4962 37.4017 53.254 38.0543 53.9961C38.67 54.6986 39.412 54.5908 40.2093 54.2592C45.022 52.2594 48.5454 48.9045 50.4373 44.0602C52.0819 39.8527 51.5845 35.7294 48.6638 32.2166C47.3271 30.6089 45.5746 29.2906 43.8458 28.0775C43.3827 27.7539 42.9591 27.4144 42.5644 27.0618" fill="#CD3833"/>
<path id="Vector_4" d="M37.8016 71.3076H33.3547C32.4863 71.1997 31.618 71.1076 30.7523 70.9839C24.1661 70.0445 18.2588 67.5184 13.125 63.282C6.35728 57.6983 2.13927 50.5806 0.55521 41.9341C0.315759 40.6184 0.181561 39.2843 0 37.9608C0 36.4793 0 34.9953 0 33.5138C0.0421012 33.2902 0.0920964 33.0665 0.123672 32.8402C0.339441 31.3535 0.460482 29.8484 0.781503 28.3828C2.82341 19.0468 7.81503 11.6449 15.6959 6.28225C23.4635 0.998554 32.0864 -0.822324 41.3513 0.640693C48.0243 1.69322 53.9343 4.50348 58.9811 8.99778C66.7436 15.9129 70.8379 24.6015 71.13 35.0005C71.3194 41.7262 69.6801 48.0414 66.1831 53.7987C60.552 63.0662 52.3818 68.7473 41.7012 70.7629C40.4119 71.005 39.0989 71.1286 37.7963 71.3076H37.8016ZM35.5966 4.90081C18.6219 4.87976 4.74165 18.7521 4.73902 35.7347C4.73902 52.6909 18.5351 66.5107 35.5255 66.5712C52.4791 66.6317 66.3778 52.7725 66.4173 35.7715C66.4567 18.8047 52.5949 4.92449 35.5966 4.90344V4.90081Z" fill="#CD3833"/>
<path id="Vector_5" d="M48.96 12.3325L45.5496 10.6874L22.1855 59.1261L25.596 60.7711L48.96 12.3325Z" fill="#CD3833"/>
</g>
</svg>
