<svg width="72" height="72" viewBox="0 0 72 72" fill="none" xmlns="http://www.w3.org/2000/svg">
<g id="Group">
<path id="Vector" d="M35.3467 63.0361C37.0071 62.8466 38.6648 62.6756 40.3173 62.4677C41.3566 62.3361 42.0434 61.7599 42.3723 60.7442C42.6513 59.8864 42.9486 59.0312 43.2828 58.1944C43.3722 57.9708 43.5959 57.7471 43.8143 57.6366C44.5379 57.2735 45.301 56.9893 46.022 56.6209C47.2324 56.0025 47.6745 54.7027 47.0929 53.5712C46.5298 52.4739 45.2589 52.095 44.0485 52.6265C43.0538 53.0633 42.0487 53.4817 41.033 53.8712C40.2909 54.158 39.7752 54.6316 39.5173 55.3868C39.241 56.1973 38.9832 57.0182 38.6543 57.8076C38.5622 58.026 38.2517 58.2892 38.0333 58.2944C36.2519 58.3339 34.4705 58.3365 32.689 58.2944C32.4601 58.2892 32.1365 57.9971 32.0365 57.7603C31.7102 56.9945 31.4576 56.1973 31.1945 55.4079C30.9418 54.65 30.4366 54.1659 29.6946 53.8791C28.6816 53.487 27.6738 53.0739 26.6817 52.6318C25.9555 52.3055 25.2582 52.2713 24.5398 52.6239C23.7715 53.0028 23.0058 53.3975 22.2164 53.7212C21.998 53.8106 21.5901 53.787 21.4375 53.6396C20.1508 52.4081 18.9035 51.1346 17.6379 49.8794C17.3642 49.6084 17.3537 49.3532 17.5326 49.0137C17.9115 48.298 18.2378 47.5534 18.6062 46.8324C18.993 46.0745 18.9825 45.3404 18.6299 44.5642C18.1878 43.5958 17.7826 42.6117 17.4037 41.6171C17.1116 40.8487 16.6195 40.3277 15.8328 40.0699C15.0644 39.8146 14.3092 39.512 13.5356 39.2726C13.1488 39.1542 12.9436 38.9673 12.9436 38.549C12.9515 36.7912 12.9278 35.0309 12.9725 33.2731C12.9778 33.0416 13.262 32.71 13.4988 32.6101C14.2856 32.2759 15.1092 32.0259 15.917 31.7444C16.6432 31.4891 17.109 30.9865 17.3879 30.2734C17.7852 29.2604 18.1904 28.2499 18.6351 27.2606C18.9746 26.508 18.9983 25.7923 18.6272 25.0555C18.2641 24.3319 17.93 23.5899 17.551 22.8742C17.3642 22.5216 17.3458 22.2453 17.6458 21.9453C18.8956 20.7086 20.1403 19.4666 21.377 18.2141C21.6796 17.9088 21.9585 17.9457 22.3058 18.1272C23.0242 18.5009 23.7636 18.8377 24.4898 19.1982C25.2266 19.5639 25.945 19.5482 26.6949 19.2061C27.6632 18.7667 28.6473 18.3535 29.642 17.9799C30.413 17.6904 30.9366 17.2036 31.1971 16.4195C31.4602 15.6275 31.7128 14.8302 32.0417 14.0671C32.1417 13.8329 32.4759 13.5514 32.7075 13.5461C34.4652 13.5014 36.2256 13.5251 37.9833 13.5198C38.4069 13.5198 38.5832 13.7356 38.7016 14.1171C38.9437 14.8907 39.241 15.6459 39.4989 16.4142C39.7594 17.1958 40.2804 17.6904 41.0514 17.9825C42.046 18.3588 43.0328 18.764 43.9985 19.2061C44.7484 19.5482 45.4641 19.5745 46.2035 19.2061C46.9508 18.8351 47.6902 18.4456 48.4638 18.1351C48.698 18.0404 49.1322 18.0772 49.3006 18.2378C50.59 19.4666 51.8477 20.7296 53.0792 22.0163C53.2266 22.169 53.2476 22.5768 53.1581 22.7978C52.824 23.6109 52.4214 24.3951 52.0372 25.1871C51.7109 25.8607 51.7451 26.5159 52.0425 27.1974C52.4898 28.2131 52.9108 29.242 53.316 30.2761C53.6055 31.0155 54.0923 31.5181 54.8501 31.7707C55.6421 32.0312 56.421 32.3338 57.213 32.589C57.5656 32.7022 57.7656 32.8706 57.763 33.2679C57.7524 35.0493 57.7735 36.8307 57.734 38.6121C57.7287 38.8279 57.4656 39.141 57.2472 39.2305C56.4578 39.5594 55.6368 39.8146 54.8264 40.0909C54.0712 40.3488 53.5923 40.8593 53.3055 41.6013C52.9134 42.6144 52.5003 43.6222 52.0556 44.6142C51.7425 45.3167 51.7004 45.993 52.0425 46.6876C52.2266 47.0613 52.3556 47.4718 52.5924 47.8086C53.4028 48.9558 53.3239 49.8952 52.2582 50.9136C51.3504 51.7793 51.5399 53.2344 52.4424 54.0211C53.3871 54.8448 54.7554 54.7711 55.6132 53.7738C56.3657 52.8949 57.0578 51.9608 57.7419 51.0267C58.2761 50.2952 58.3392 49.49 57.934 48.6611C57.5182 47.8086 57.1025 46.9534 56.6946 46.0956C56.4183 45.5141 57.0288 44.0537 57.6393 43.8327C58.5339 43.5116 59.4312 43.2064 60.3259 42.888C61.1574 42.5933 61.6757 42.0144 61.8468 41.1434C62.5335 37.6648 62.5335 34.1888 61.8468 30.7102C61.6731 29.8366 61.1547 29.263 60.3259 28.9657C59.4312 28.6446 58.5339 28.3368 57.6393 28.0158C57.0235 27.7947 56.4157 26.3422 56.6946 25.7581C57.1025 24.9003 57.5182 24.0477 57.934 23.1925C58.3392 22.3637 58.255 21.5743 57.7472 20.8244C55.7816 17.9325 53.3607 15.4959 50.461 13.5382C49.7085 13.0304 48.9217 12.9462 48.0928 13.354C47.2403 13.7724 46.3825 14.1829 45.5247 14.5881C44.9405 14.8644 43.4828 14.2566 43.2617 13.6435C42.946 12.7725 42.6355 11.9015 42.3355 11.0253C42.0303 10.1333 41.4329 9.60175 40.5014 9.42019C37.0676 8.75183 33.6363 8.75972 30.2025 9.42019C29.271 9.59912 28.6736 10.1385 28.3684 11.0253C28.0684 11.9015 27.7632 12.7751 27.4475 13.6461C27.229 14.2539 25.7608 14.8644 25.1819 14.5881C24.3241 14.1803 23.4689 13.7671 22.6163 13.3514C21.7875 12.9462 21.0033 13.0277 20.2481 13.5382C17.3537 15.5012 14.9276 17.9325 12.962 20.8244C12.4489 21.5795 12.3726 22.361 12.7752 23.1899C13.1804 24.0214 13.5777 24.8608 13.9751 25.6976C14.2935 26.3712 13.704 27.8053 13.0015 28.0526C12.1279 28.3631 11.249 28.6525 10.378 28.9657C9.55181 29.263 9.03607 29.8314 8.8624 30.7102C8.18089 34.1652 8.18089 37.6175 8.84925 41.075C9.03081 42.0091 9.56759 42.5986 10.457 42.9038C11.3332 43.2038 12.2068 43.5116 13.0778 43.83C13.6883 44.0511 14.2829 45.5141 14.0066 46.1009C13.6014 46.9587 13.1909 47.8165 12.7752 48.669C12.37 49.5005 12.4621 50.2794 12.9725 51.0346C14.925 53.908 17.3353 56.3209 20.2034 58.2813C21.006 58.8286 21.8269 58.8996 22.6979 58.4707C23.4663 58.0918 24.253 57.7445 25.0082 57.3419C25.4134 57.1261 25.7397 57.1735 26.1713 57.3024C27.0633 57.5734 27.5553 58.0918 27.7474 59.0022C27.8711 59.5864 28.1474 60.1363 28.3263 60.71C28.6526 61.752 29.3604 62.344 30.4261 62.4782C32.0575 62.6835 33.6916 62.8545 35.3467 63.0413V63.0361ZM37.8675 21.2717C37.8675 20.7454 37.8754 20.3954 37.8675 20.0481C37.8307 18.7956 36.8729 17.8325 35.6625 17.822C34.4468 17.8141 33.4706 18.7588 33.4232 20.0165C33.3995 20.6665 33.3837 21.319 33.4284 21.9637C33.46 22.4347 33.3021 22.64 32.8575 22.8136C29.7814 24.0004 27.8106 26.9132 27.8527 30.1471C27.9053 34.4204 31.2208 37.699 35.6546 37.8648C37.5754 37.9359 39.0042 39.391 38.9832 41.254C38.9648 43.0196 37.5281 44.4879 35.7651 44.5431C33.91 44.601 32.418 43.1959 32.3049 41.2803C32.2207 39.8672 31.2523 38.9173 29.9604 38.9831C28.7052 39.0463 27.779 40.0804 27.8632 41.446C28.0737 44.7931 29.7314 47.1534 32.8338 48.4454C33.3179 48.648 33.4495 48.8795 33.4258 49.3532C33.3943 50.0005 33.3969 50.6531 33.4258 51.3004C33.4837 52.545 34.4941 53.4844 35.7072 53.4528C36.886 53.4212 37.8333 52.4687 37.8675 51.253C37.8859 50.6267 37.9122 49.9979 37.8596 49.3742C37.8149 48.8427 38.0201 48.6269 38.5069 48.4375C42.9723 46.7087 44.8168 41.3145 42.3355 37.2307C40.8199 34.7362 38.549 33.5047 35.6414 33.4073C33.1601 33.3231 31.5997 30.876 32.6127 28.6736C33.239 27.3106 34.781 26.5001 36.2229 26.7764C37.7859 27.0764 38.8885 28.3368 38.9806 29.9235C39.0674 31.4023 40.0199 32.3601 41.3356 32.2917C42.6118 32.2232 43.5091 31.1865 43.4249 29.7551C43.2459 26.729 41.8145 24.4398 39.0858 23.1241C38.1043 22.6505 37.5991 22.1769 37.8701 21.269L37.8675 21.2717Z" fill="#CD3833"/>
<path id="Vector_2" d="M71.2773 37.728C71.0984 39.0568 70.9642 40.3909 70.7326 41.7092C69.2091 50.4241 65.0121 57.6103 58.1865 63.2097C51.2924 68.8671 43.3089 71.4905 34.4098 71.2379C28.5867 71.0721 23.124 69.4986 18.0456 66.6305C17.9245 66.562 17.8009 66.4989 17.622 66.4042C16.5063 67.5698 15.3879 68.7381 14.2696 69.9038C13.996 70.188 13.7355 70.4906 13.4355 70.7406C12.1304 71.8299 10.2016 71.1563 9.84637 69.4933C9.79901 69.2697 9.7727 69.0329 9.7727 68.8039C9.76744 65.6963 9.75955 62.5861 9.7727 59.4785C9.7806 57.8971 10.8858 56.8288 12.3277 57.0998C12.875 57.2024 13.4434 57.5682 13.8539 57.9655C17.0931 61.081 20.7769 63.5176 25.0344 64.9411C36.2412 68.6829 46.5586 66.9383 55.7183 59.4338C61.794 54.4553 65.2884 47.9033 66.4778 40.1462C66.6909 38.7542 66.7356 37.3307 66.8014 35.9203C66.8646 34.5888 67.4882 33.6889 68.6065 33.4521C69.6801 33.2258 70.5958 33.7731 71.172 34.9888C71.1905 35.0282 71.2352 35.0519 71.2668 35.0835V37.728H71.2773Z" fill="#CD3833"/>
<path id="Vector_3" d="M59.8601 0.00263113C61.1521 0.578891 61.5547 1.59985 61.5258 2.9655C61.4679 5.81786 61.4942 8.67022 61.5152 11.5226C61.5231 12.6304 61.2416 13.5645 60.1575 14.0355C59.0786 14.5039 58.1971 14.1013 57.3972 13.3224C52.5608 8.61233 46.793 5.70734 40.1147 4.79691C30.955 3.54703 22.7137 5.8468 15.5986 11.7831C9.52815 16.8457 5.96533 23.382 4.78386 31.1917C4.57073 32.6074 4.53389 34.0546 4.46285 35.4887C4.39443 36.8991 3.47609 37.8885 2.18411 37.8621C0.926339 37.8385 0.0027469 36.8254 0.000115575 35.465C-0.0419856 19.2876 11.4227 4.73638 27.1843 1.03411C29.0947 0.586785 31.0682 0.415749 33.0127 0.115778C33.1917 0.0868336 33.3679 0.0394699 33.5469 0C34.9389 0 36.3308 0 37.7228 0C37.8991 0.0394699 38.0754 0.0999902 38.257 0.113147C40.9699 0.299971 43.617 0.813079 46.2167 1.61037C48.8138 2.40766 51.2767 3.50756 53.6581 4.87848C54.8211 3.66017 55.9526 2.43661 57.1314 1.26304C57.613 0.784135 58.205 0.418381 58.7471 0C59.1181 0 59.4891 0 59.8601 0V0.00263113Z" fill="#CD3833"/>
<path id="Vector_4" d="M35.3467 63.0361C33.6916 62.8493 32.0575 62.6782 30.4261 62.473C29.3604 62.3388 28.6526 61.7467 28.3263 60.7047C28.1474 60.1311 27.8711 59.5812 27.7474 58.997C27.5553 58.0892 27.0659 57.5682 26.1713 57.2972C25.7397 57.1682 25.4134 57.1209 25.0082 57.3366C24.253 57.7392 23.4663 58.0866 22.6979 58.4655C21.8269 58.897 21.006 58.826 20.2034 58.276C17.3353 56.3157 14.925 53.9028 12.9725 51.0294C12.4594 50.2768 12.37 49.4953 12.7752 48.6638C13.1909 47.8112 13.6014 46.9534 14.0066 46.0956C14.2829 45.5088 13.6883 44.0484 13.0778 43.8248C12.2068 43.509 11.3332 43.1985 10.457 42.8986C9.56759 42.596 9.03081 42.0039 8.84925 41.0698C8.18089 37.6122 8.18089 34.1599 8.8624 30.705C9.03607 29.8261 9.55181 29.2551 10.378 28.9604C11.249 28.6473 12.1279 28.3552 13.0015 28.0474C13.704 27.7974 14.2935 26.3633 13.9751 25.6923C13.5777 24.8556 13.1804 24.0188 12.7752 23.1847C12.3726 22.3558 12.4489 21.5743 12.962 20.8191C14.925 17.9247 17.3511 15.4959 20.2481 13.533C21.0007 13.0225 21.7875 12.9409 22.6163 13.3462C23.4689 13.7645 24.3241 14.1776 25.1819 14.5829C25.7608 14.8565 27.229 14.2487 27.4475 13.6409C27.7606 12.7699 28.0658 11.8963 28.3684 11.0201C28.6736 10.1307 29.2736 9.59388 30.2025 9.41495C33.6363 8.75449 37.0676 8.74396 40.5014 9.41495C41.4329 9.59651 42.0303 10.128 42.3355 11.0201C42.6355 11.8963 42.946 12.7699 43.2617 13.6382C43.4854 14.2513 44.9431 14.8592 45.5247 14.5829C46.3825 14.1776 47.2403 13.7645 48.0928 13.3488C48.9217 12.9436 49.7085 13.0251 50.461 13.533C53.3607 15.4907 55.7816 17.9273 57.7472 20.8191C58.2576 21.569 58.3392 22.3611 57.934 23.1873C57.5182 24.0399 57.1025 24.895 56.6946 25.7528C56.4157 26.3396 57.0235 27.7895 57.6393 28.0105C58.5339 28.3315 59.4312 28.6394 60.3259 28.9604C61.1574 29.2578 61.6757 29.8314 61.8468 30.705C62.5335 34.1836 62.5335 37.6596 61.8468 41.1382C61.6731 42.0092 61.1574 42.5854 60.3259 42.8828C59.4312 43.2012 58.5339 43.5064 57.6393 43.8274C57.0262 44.0458 56.4157 45.5088 56.6946 46.0904C57.1025 46.9482 57.5182 47.8033 57.934 48.6559C58.3392 49.4848 58.2761 50.2873 57.7419 51.0215C57.0604 51.9582 56.3684 52.8897 55.6132 53.7686C54.758 54.7658 53.3871 54.8395 52.4424 54.0159C51.5425 53.2291 51.3531 51.774 52.2582 50.9083C53.3239 49.89 53.4028 48.9506 52.5924 47.8033C52.3556 47.4665 52.2266 47.056 52.0425 46.6824C51.7004 45.9877 51.7425 45.3115 52.0556 44.6089C52.4977 43.6169 52.9134 42.6091 53.3055 41.5961C53.5923 40.854 54.0712 40.3435 54.8264 40.0857C55.6368 39.8094 56.4578 39.5541 57.2472 39.2252C57.4656 39.1358 57.7287 38.8226 57.734 38.6069C57.7735 36.8255 57.7524 35.0441 57.763 33.2626C57.763 32.8653 57.5656 32.6969 57.213 32.5838C56.421 32.3285 55.6421 32.0286 54.8501 31.7654C54.0896 31.5128 53.6055 31.0102 53.316 30.2708C52.9108 29.2367 52.4898 28.2105 52.0425 27.1922C51.7425 26.5107 51.7109 25.8555 52.0372 25.1818C52.4214 24.3898 52.824 23.6057 53.1581 22.7926C53.2476 22.5716 53.2266 22.1637 53.0792 22.0111C51.8477 20.7244 50.59 19.4613 49.3006 18.2325C49.1322 18.072 48.7007 18.0352 48.4638 18.1299C47.6929 18.4404 46.9508 18.8298 46.2035 19.2008C45.4641 19.5666 44.7484 19.5403 43.9985 19.2008C43.0302 18.7588 42.046 18.3536 41.0514 17.9773C40.2804 17.6852 39.762 17.1931 39.4989 16.409C39.241 15.6407 38.9437 14.8855 38.7016 14.1119C38.5832 13.7303 38.4043 13.5119 37.9833 13.5146C36.2256 13.5224 34.4652 13.4988 32.7075 13.5409C32.4733 13.5461 32.1417 13.8277 32.0417 14.0619C31.7128 14.825 31.4602 15.6222 31.1971 16.4143C30.9366 17.1984 30.4156 17.6852 29.642 17.9746C28.6473 18.3483 27.6632 18.7614 26.6949 19.2008C25.9423 19.5429 25.2266 19.5587 24.4898 19.193C23.7636 18.8325 23.0242 18.4957 22.3058 18.122C21.9585 17.9431 21.6796 17.9036 21.377 18.2088C20.1403 19.4613 18.8983 20.7033 17.6458 21.9401C17.3432 22.2374 17.3642 22.5137 17.551 22.8689C17.93 23.5846 18.2615 24.3267 18.6272 25.0503C18.9983 25.7871 18.9746 26.5054 18.6351 27.2553C18.1878 28.2473 17.7826 29.2551 17.3879 30.2682C17.109 30.9813 16.6432 31.4865 15.917 31.7391C15.1092 32.0207 14.2856 32.2706 13.4988 32.6048C13.2646 32.7048 12.9804 33.0364 12.9725 33.2679C12.9278 35.0256 12.9515 36.7834 12.9436 38.5437C12.9436 38.9621 13.1488 39.1463 13.5356 39.2673C14.3092 39.5068 15.0644 39.8094 15.8328 40.0646C16.6169 40.3251 17.109 40.8435 17.4037 41.6118C17.7826 42.6065 18.1878 43.5906 18.6299 44.5589C18.9851 45.3352 18.993 46.0693 18.6062 46.8271C18.2378 47.5507 17.9115 48.2928 17.5326 49.0085C17.3537 49.3479 17.3669 49.6032 17.6379 49.8742C18.9035 51.1293 20.1508 52.4029 21.4375 53.6344C21.5901 53.7817 21.998 53.8054 22.2164 53.7159C23.0084 53.3896 23.7715 52.9976 24.5398 52.6187C25.2582 52.2661 25.9529 52.3003 26.6817 52.6266C27.6738 53.0713 28.6816 53.4817 29.6946 53.8738C30.4366 54.1606 30.9418 54.6448 31.1945 55.4026C31.4576 56.1946 31.7102 56.9893 32.0365 57.755C32.1365 57.9918 32.4601 58.2839 32.689 58.2892C34.4705 58.3339 36.2519 58.3286 38.0333 58.2892C38.249 58.2839 38.5622 58.0208 38.6543 57.8024C38.9832 57.013 39.241 56.1946 39.5173 55.3816C39.7752 54.6264 40.2909 54.1527 41.033 53.8659C42.046 53.4739 43.0538 53.0581 44.0485 52.6213C45.2589 52.0871 46.5298 52.4687 47.0929 53.5659C47.6718 54.6948 47.2324 55.9973 46.022 56.6157C45.301 56.984 44.5379 57.2682 43.8143 57.6313C43.5959 57.7419 43.3722 57.9655 43.2828 58.1892C42.9486 59.0259 42.6486 59.8811 42.3723 60.7389C42.0434 61.7546 41.3566 62.3309 40.3173 62.4625C38.6648 62.6703 37.0071 62.844 35.3467 63.0308V63.0361Z" fill="#CD3833"/>
<path id="Vector_5" d="M37.8675 21.2717C37.5965 22.1795 38.1017 22.6531 39.0832 23.1268C41.8093 24.4424 43.2433 26.7317 43.4223 29.7577C43.5065 31.1891 42.6092 32.2285 41.333 32.2943C40.0173 32.3627 39.0648 31.4049 38.9779 29.9261C38.8858 28.3394 37.7807 27.079 36.2203 26.779C34.7783 26.5027 33.2364 27.3106 32.6101 28.6762C31.5971 30.8786 33.1574 33.3258 35.6388 33.41C38.5464 33.51 40.8172 34.7388 42.3329 37.2333C44.8142 41.3197 42.9697 46.714 38.5043 48.4401C38.0175 48.6269 37.8123 48.8427 37.857 49.3769C37.9096 49.9978 37.8833 50.6294 37.8649 51.2556C37.8307 52.4713 36.8834 53.4265 35.7046 53.4554C34.4942 53.487 33.4811 52.5476 33.4232 51.303C33.3943 50.6557 33.3916 50.0031 33.4232 49.3558C33.4469 48.8822 33.3153 48.6506 32.8312 48.448C29.7315 47.156 28.0711 44.7957 27.8606 41.4487C27.7738 40.083 28.7026 39.0489 29.9578 38.9858C31.2497 38.92 32.2181 39.8699 32.3023 41.2829C32.4154 43.1985 33.9048 44.6036 35.7625 44.5457C37.5255 44.4905 38.9622 43.0222 38.9806 41.2566C39.0016 39.391 37.5728 37.9385 35.6519 37.8674C31.2155 37.7017 27.9027 34.423 27.8501 30.1498C27.8106 26.9132 29.7788 24.003 32.8548 22.8163C33.3022 22.6452 33.4574 22.4373 33.4258 21.9663C33.3811 21.319 33.3969 20.6665 33.4206 20.0192C33.4679 18.7614 34.4442 17.8167 35.6598 17.8246C36.8703 17.8325 37.8281 18.7982 37.8649 20.0507C37.8754 20.3981 37.8649 20.7454 37.8649 21.2743L37.8675 21.2717Z" fill="#CD3833"/>
</g>
</svg>
