<svg width="72" height="72" viewBox="0 0 72 72" fill="none" xmlns="http://www.w3.org/2000/svg">
<g id="Group">
<g id="Group_2">
<path id="Vector" d="M40.783 14.6464C41.1093 14.978 41.4329 15.3121 41.7618 15.6411C46.8113 20.6906 51.8608 25.7401 56.9104 30.7896C57.177 31.0563 57.1814 31.3185 56.9235 31.5764C54.5895 33.9104 52.2529 36.247 49.9189 38.581C49.8216 38.6783 49.7163 38.773 49.6479 38.8362C44.1379 33.3262 38.6437 27.832 33.1179 22.3062C33.1705 22.251 33.2732 22.1404 33.3811 22.0326C35.7256 19.688 38.0701 17.3435 40.4146 14.9964C40.5198 14.8911 40.6067 14.7622 40.7014 14.6464C40.7303 14.6464 40.7567 14.6464 40.7856 14.6464H40.783Z" fill="#CD3833"/>
<path id="Vector_2" d="M37.986 29.5766C39.4674 31.0527 40.9173 32.4973 42.3882 33.963C42.2935 34.063 42.1908 34.1761 42.083 34.284C34.3469 42.0201 26.6134 49.7562 18.8773 57.4923C18.1853 58.1843 17.8748 58.187 17.1906 57.5028C16.2328 56.545 15.2724 55.5898 14.3172 54.6268C13.8225 54.1295 13.8146 53.7348 14.3067 53.2427C22.1507 45.3961 29.9973 37.5521 37.8439 29.7081C37.8939 29.6581 37.9465 29.616 37.9886 29.5792L37.986 29.5766Z" fill="#CD3833"/>
<path id="Vector_3" d="M52.3925 23.9587C50.9085 22.4746 49.4586 21.0248 47.9351 19.5039C48.0403 19.4275 48.1903 19.3407 48.3113 19.2249C48.8429 18.7118 49.2297 18.7066 49.7559 19.2328C50.7032 20.1748 51.6479 21.1221 52.5925 22.0694C53.2924 22.7693 53.2898 23.0903 52.582 23.7824C52.5136 23.8508 52.4399 23.914 52.3899 23.9613L52.3925 23.9587Z" fill="#CD3833"/>
</g>
<path id="Vector_4" d="M37.8016 71.9067H33.3547C32.4863 71.7988 31.618 71.7067 30.7523 71.583C24.1661 70.6436 18.2588 68.1176 13.125 63.8811C6.35728 58.2975 2.13926 51.1797 0.555206 42.5332C0.315755 41.2175 0.181561 39.8834 0 38.5599C0 37.0785 0 35.5944 0 34.1129C0.0421012 33.8893 0.0920967 33.6656 0.123673 33.4393C0.339441 31.9526 0.460482 30.4475 0.781504 28.9819C2.82341 19.6459 7.81503 12.244 15.6959 6.88138C23.4635 1.59768 32.0864 -0.223202 41.3513 1.23981C48.0243 2.29234 53.9343 5.10259 58.9811 9.5969C66.7436 16.512 70.8379 25.2007 71.13 35.5997C71.3194 42.3253 69.6801 48.6405 66.1831 54.3978C60.552 63.6654 52.3818 69.3464 41.7012 71.362C40.4119 71.6041 39.0989 71.7277 37.7964 71.9067H37.8016ZM35.5966 5.49993C18.6219 5.47888 4.74164 19.3512 4.73901 36.3338C4.73901 53.29 18.5351 67.1098 35.5255 67.1703C52.4792 67.2308 66.3778 53.3716 66.4173 36.3706C66.4567 19.4038 52.5949 5.52361 35.5966 5.50256V5.49993Z" fill="#CD3833"/>
</g>
</svg>
