<svg width="71" height="71" viewBox="0 0 71 71" fill="none" xmlns="http://www.w3.org/2000/svg">
<g id="Group">
<path id="Vector" d="M33.5658 0.27889C34.6684 0.27889 35.7683 0.27889 36.8708 0.27889C37.9365 0.410456 38.9995 0.573598 40.0679 0.670958C41.6098 0.813049 42.5992 1.59982 43.0886 3.06283C43.4965 4.2785 44.0306 5.45734 44.3516 6.69406C44.6516 7.85184 45.2279 8.59125 46.4146 8.83596C46.6777 8.89122 46.9093 9.10435 47.1724 9.14909C47.4803 9.20171 47.8487 9.24645 48.1144 9.1254C49.6617 8.43073 51.1852 7.6887 52.7166 6.96246C54.027 6.34146 55.2164 6.50197 56.3768 7.38873C59.016 9.41222 61.3368 11.7383 63.3656 14.3723C64.255 15.5274 64.4155 16.722 63.7945 18.0324C63.3524 18.9639 63.0051 19.9559 62.4499 20.8138C61.4763 22.3136 61.2868 23.7687 62.3104 25.287C62.4973 25.5633 62.7446 25.8817 63.034 25.9948C64.5734 26.5869 66.1285 27.1368 67.6889 27.6657C69.1519 28.1604 69.9439 29.1393 70.0834 30.6839C70.1834 31.7995 70.3412 32.9073 70.4728 34.0204V37.0517C70.3412 38.1647 70.1834 39.2751 70.0834 40.3882C69.9439 41.9328 69.1545 42.9169 67.6889 43.4089C66.4732 43.8168 65.2917 44.351 64.0576 44.6746C62.9051 44.9772 62.1526 45.5456 61.9157 46.7402C61.8631 47.0033 61.6473 47.2349 61.6052 47.498C61.5552 47.8059 61.5131 48.1743 61.6342 48.44C62.3183 49.9662 63.0419 51.4739 63.7708 52.9817C64.4155 54.3158 64.2708 55.5236 63.363 56.705C61.3368 59.3416 59.0081 61.6651 56.3715 63.6912C55.2137 64.5806 54.0165 64.7279 52.7061 64.1043C51.5878 63.5728 50.4353 63.1044 49.3617 62.4966C48.2565 61.8729 47.2145 61.5546 46.0804 62.3729C45.9383 62.4755 45.7436 62.5203 45.5673 62.565C45.1042 62.6834 44.8595 62.9597 44.7042 63.4254C44.1754 65.0121 43.5991 66.583 43.0334 68.1565C42.5518 69.4959 41.5966 70.1932 40.181 70.3958C36.8866 70.8694 33.6027 70.8721 30.3056 70.4037C28.8321 70.1932 27.8559 69.4827 27.3664 68.0829C26.9507 66.8935 26.4534 65.7252 26.1271 64.5122C25.8034 63.3149 25.2535 62.4492 23.9562 62.2098C23.7142 62.165 23.5037 61.9598 23.2616 61.9229C22.9537 61.8756 22.5853 61.823 22.3196 61.9414C20.7723 62.636 19.2488 63.3807 17.7147 64.1069C16.4043 64.7279 15.2123 64.5701 14.0519 63.6807C11.4153 61.6545 9.08925 59.3285 7.06313 56.6919C6.17375 55.5367 6.01324 54.3395 6.63686 53.0291C7.08945 52.0765 7.44467 51.0608 8.01567 50.1872C8.98663 48.6979 9.10768 47.2586 8.1183 45.7719C7.93411 45.4956 7.6815 45.1825 7.38942 45.0693C5.82905 44.472 4.24499 43.9273 2.66619 43.3774C1.26633 42.8879 0.553236 41.917 0.345361 40.4408C-0.11512 37.1674 -0.11512 33.9072 0.345361 30.6339C0.553236 29.1603 1.25843 28.1788 2.65566 27.6894C3.82397 27.2789 4.9686 26.7869 6.15796 26.4685C7.39994 26.1369 8.32617 25.5896 8.56036 24.2239C8.59457 24.0266 8.69982 23.8345 8.80507 23.6582C9.02347 23.2898 9.00242 22.9688 8.80507 22.5741C8.0604 21.0769 7.3631 19.556 6.64212 18.0456C6.0185 16.7352 6.16585 15.5379 7.05524 14.3802C9.08399 11.7462 11.4048 9.41485 14.044 7.39136C15.2281 6.48355 16.4359 6.3362 17.7647 6.98351C18.6699 7.42557 19.6488 7.75448 20.4855 8.29917C21.9827 9.27276 23.4431 9.46485 24.9614 8.44126C25.2377 8.25444 25.5561 8.00709 25.6692 7.71501C26.2613 6.17569 26.8112 4.62058 27.3401 3.05757C27.8348 1.59455 28.8189 0.802524 30.3609 0.663064C31.4292 0.565704 32.4923 0.405194 33.5606 0.270996L33.5658 0.27889ZM54.0428 58.047C55.1111 56.9103 56.1952 55.7314 57.3162 54.5842C57.6188 54.2737 57.5951 54.0395 57.4214 53.6895C56.7452 52.3107 56.1137 50.9108 55.4348 49.5347C54.9111 48.4716 54.919 47.448 55.4085 46.3665C56.0295 44.9904 56.5978 43.5905 57.1267 42.1749C57.5425 41.0644 58.2582 40.3277 59.3818 39.9461C60.8579 39.4462 62.3157 38.9015 63.7892 38.3936C64.1339 38.2752 64.3208 38.1173 64.3155 37.7226C64.2997 36.2807 64.2997 34.8387 64.3181 33.3941C64.3234 32.9731 64.1313 32.8021 63.7577 32.6731C62.3052 32.1784 60.8685 31.6338 59.4133 31.1443C58.2635 30.7575 57.5346 30.0129 57.1136 28.8709C56.6005 27.4763 56.0426 26.0948 55.4216 24.745C54.9138 23.6372 54.9085 22.5978 55.4453 21.5137C56.1242 20.1375 56.7583 18.7376 57.432 17.3588C57.5925 17.0325 57.6267 16.8062 57.3346 16.5221C56.2794 15.5011 55.2453 14.4617 54.2191 13.4118C53.9639 13.1513 53.7534 13.1513 53.4402 13.3039C52.0614 13.9802 50.6616 14.6117 49.2854 15.2932C48.1802 15.8405 47.1224 15.8511 45.991 15.3274C44.6437 14.7038 43.2596 14.1486 41.865 13.6329C40.723 13.2119 39.9889 12.4725 39.6047 11.3226C39.1179 9.86744 38.5785 8.43074 38.0786 6.97824C37.9628 6.64407 37.8286 6.43356 37.4181 6.43619C35.9998 6.45198 34.5789 6.45198 33.158 6.4204C32.637 6.40988 32.4607 6.66775 32.3133 7.10455C31.8318 8.53599 31.2976 9.95164 30.8082 11.3831C30.4346 12.4777 29.7215 13.1934 28.6347 13.6066C27.2007 14.1486 25.7797 14.7249 24.3799 15.3538C23.2958 15.8405 22.2722 15.8379 21.2091 15.3143C19.833 14.6354 18.4305 14.0091 17.0517 13.3303C16.6938 13.154 16.4543 13.1487 16.1596 13.4539C15.2045 14.4433 14.2309 15.4169 13.2362 16.3668C12.8626 16.722 12.8047 17.0141 13.0468 17.4851C13.723 18.8113 14.3256 20.177 14.9861 21.5111C15.5228 22.5952 15.5176 23.6345 15.0097 24.7423C14.3887 26.0922 13.8335 27.4763 13.3178 28.8682C12.8968 30.0076 12.1679 30.7549 11.018 31.1417C9.54184 31.639 8.0762 32.1653 6.62107 32.7205C6.41057 32.8021 6.1527 33.1099 6.14744 33.3204C6.10534 34.7835 6.13427 36.2517 6.11586 37.7148C6.11059 38.1121 6.29742 38.2673 6.64212 38.3857C8.11566 38.891 9.57605 39.4383 11.0496 39.9382C12.1732 40.3198 12.8915 41.0539 13.3073 42.167C13.8362 43.58 14.4045 44.9825 15.0255 46.356C15.515 47.4401 15.5228 48.4611 15.0018 49.5241C14.3151 50.9214 13.652 52.3318 13.0047 53.75C12.9205 53.9342 12.8942 54.2816 13.0047 54.4C14.1467 55.6209 15.3202 56.8103 16.4806 58.0023C18.1173 57.226 19.6567 56.5156 21.1776 55.7683C22.2617 55.2367 23.2984 55.2236 24.4088 55.7314C25.7798 56.3603 27.1849 56.9208 28.6005 57.4497C29.7136 57.8654 30.4425 58.5917 30.8214 59.7126C31.3055 61.1441 31.8502 62.5571 32.3212 63.9938C32.4738 64.4622 32.7054 64.6569 33.1896 64.649C34.5868 64.6306 35.984 64.6227 37.3813 64.6385C37.8128 64.6437 37.9681 64.428 38.0917 64.0648C38.5812 62.6334 39.1232 61.2204 39.5942 59.7863C39.9915 58.5812 40.7651 57.8339 41.9624 57.4076C43.2965 56.9313 44.6148 56.3893 45.8962 55.7867C47.0908 55.2236 48.2092 55.2262 49.3854 55.8183C50.8563 56.5603 52.3614 57.2418 54.0454 58.0417L54.0428 58.047Z" fill="#CD3833"/>
<path id="Vector_2" d="M49.2092 34.8124C49.246 42.4748 42.9756 48.7558 35.2474 48.8031C27.5744 48.8479 21.3277 42.6458 21.2224 34.8782C21.1198 27.2605 27.5271 20.8295 35.2158 20.8322C42.8914 20.8374 49.1697 27.1105 49.2065 34.8124H49.2092ZM35.229 42.7721C39.5917 42.7564 43.1466 39.2067 43.1677 34.8492C43.1887 30.4891 39.568 26.8658 35.2026 26.8763C30.832 26.8868 27.2192 30.5286 27.2639 34.8755C27.3113 39.2462 30.8846 42.7906 35.229 42.7748V42.7721Z" fill="#CD3833"/>
</g>
</svg>
