<svg width="39" height="37" viewBox="0 0 39 37" fill="none" xmlns="http://www.w3.org/2000/svg">
<path id="Vector" d="M2.28696 15.4578C1.7291 14.9477 2.03213 14.0256 2.78668 13.9371L13.4783 12.6832C13.7858 12.6472 14.0529 12.4562 14.1826 12.1782L18.6922 2.51172C19.0104 1.82951 19.9913 1.82938 20.3096 2.51159L24.8191 12.178C24.9489 12.456 25.2142 12.6475 25.5218 12.6835L36.2139 13.9371C36.9685 14.0256 37.2707 14.948 36.7128 15.458L28.8091 22.6861C28.5818 22.894 28.4805 23.2035 28.5409 23.5038L30.6385 33.9448C30.7866 34.6817 29.9934 35.2527 29.3304 34.8857L19.9357 29.6848C19.6655 29.5353 19.3372 29.536 19.067 29.6855L9.6713 34.8844C9.00827 35.2513 8.21366 34.6817 8.36174 33.9448L10.4597 23.5044C10.52 23.2041 10.4191 22.894 10.1917 22.6861L2.28696 15.4578Z" stroke="#DF2129" stroke-width="3" stroke-linecap="round" stroke-linejoin="round"/>
</svg>
