<svg class="svg-icon" style="width: 1em; height: 1em;vertical-align: middle;fill: currentColor;overflow: hidden;" viewBox="0 0 1024 1024" version="1.1" xmlns="http://www.w3.org/2000/svg"><path d="M905.216 381.44H117.76c-14.336 0-26.112-11.776-26.112-26.112s11.776-26.112 26.112-26.112h787.968c14.336 0 26.112 11.776 26.112 26.112s-12.288 26.112-26.624 26.112z" fill="#2C2C2C" /><path d="M325.12 381.44c-3.072 0-6.144-0.512-8.704-1.536-13.312-5.12-20.48-19.968-15.872-33.28l59.392-163.328c3.584-10.24 13.312-17.408 24.576-17.408h238.592c9.728 0 18.944 5.632 23.552 14.336l80.896 163.328c6.144 12.8 1.024 28.672-11.776 34.816s-28.672 1.024-34.816-11.776L607.744 217.6h-204.8l-53.248 146.944c-3.584 10.24-13.824 16.896-24.576 16.896z" fill="#2C2C2C" /><path d="M692.736 856.576H287.232c-42.496 0-100.864-10.24-116.224-97.792-7.68-41.472-14.848-125.44-21.504-248.32-4.608-82.944-7.168-153.6-7.168-154.112-0.512-14.336 10.752-26.624 25.088-27.136s26.624 10.752 27.136 25.088c0 0.512 2.56 71.168 7.168 153.088 6.656 119.296 13.824 203.264 20.48 242.176 8.192 46.592 27.648 54.784 65.024 54.784h405.504c60.416 0 81.92-14.848 89.6-61.44 11.264-69.12 53.248-387.584 53.76-390.656 2.048-14.336 14.848-24.576 29.184-22.528 14.336 2.048 24.576 14.848 22.528 29.184-1.536 13.312-42.496 322.56-53.76 392.192-15.36 93.696-83.456 105.472-141.312 105.472z" fill="#2C2C2C" /><path d="M841.216 532.48h-665.6c-12.8 0-23.04-10.24-23.04-23.04s10.24-23.04 23.04-23.04h665.6c12.8 0 23.04 10.24 23.04 23.04 0 12.288-10.24 23.04-23.04 23.04zM819.2 694.784H186.368c-12.8 0-23.04-10.24-23.04-23.04s10.24-23.04 23.04-23.04H819.2c12.8 0 23.04 10.24 23.04 23.04s-10.24 23.04-23.04 23.04z" fill="#2C2C2C" /><path d="M640 842.752c-12.8-1.024-22.016-12.288-20.992-25.088l39.424-462.336c1.024-12.8 12.288-22.016 25.088-20.992 12.8 1.024 22.016 12.288 20.992 25.088L665.088 821.76c-1.536 12.8-12.288 22.016-25.088 20.992z m-257.024 10.752c-12.8 1.024-24.064-8.192-25.088-20.992l-40.448-473.6c-1.024-12.8 8.192-24.064 20.992-25.088 12.8-1.024 24.064 8.192 25.088 20.992l40.448 473.6c1.536 12.8-8.192 23.552-20.992 25.088z" fill="#2C2C2C" /></svg>