<?xml version="1.0" encoding="UTF-8"?>
<svg id="_Слой_1" data-name="Слой 1" xmlns="http://www.w3.org/2000/svg" viewBox="0 0 813.2 442.3">
  <defs>
    <style>
      .cls-1 {
        fill: #df2129;
      }
    </style>
  </defs>
  <path class="cls-1" d="M813.2,10.8V431.4c0,6-4.8,10.8-10.8,10.8h-103.4c-6,0-10.8-4.8-10.8-10.8V113c0-6-4.8-10.8-10.8-10.8h-57.7c-6,0-10.8-4.8-10.8-10.8V10.8C608.9,4.8,613.7,0,619.7,0h182.7c5.9,0,10.8,4.8,10.8,10.8Z"/>
  <path class="cls-1" d="M395.2,360.1v77.2c0,2.7,2.2,5,5,5h110.8c2.7,0,5-2.2,5-5V187.8c0-2.7-2.2-5-5-5h0c-1.7,0-3.3,.9-4.2,2.3l-110.8,172.3c-.5,.8-.8,1.7-.8,2.7Z"/>
  <path class="cls-1" d="M120.8,360.1v77.2c0,2.7-2.2,5-5,5H5c-2.7,0-5-2.2-5-5V187.8c0-2.7,2.2-5,5-5h0c1.7,0,3.3,.9,4.2,2.3l110.8,172.2c.5,.9,.8,1.8,.8,2.8Z"/>
  <path class="cls-1" d="M263.6,224.1L393.2,3.6c1.3-2.2,3.7-3.6,6.3-3.6h99.8c5.5,0,9.1,5.9,6.4,10.8l-193.9,357.9-.3,.6c-25.1,38.8-81.9,38.7-106.8-.2-.1-.2-.2-.4-.3-.5L10.9,10.8C8.3,5.9,11.8,0,17.3,0H111.3C113.9,0,116.2,1.3,117.6,3.5L251,224.2c2.9,4.7,9.7,4.7,12.6-.1Z"/>
</svg>