<svg width="25" height="33" viewBox="0 0 25 33" fill="none" xmlns="http://www.w3.org/2000/svg">
<path id="Vector" d="M13.9189 31.3034C16.9899 27.405 24 17.9624 24 12.6545C24 6.21826 18.8469 1 12.5 1C6.15309 1 1 6.22234 1 12.6545C1 17.9583 8.01014 27.405 11.0811 31.3034C11.8167 32.2322 13.1833 32.2322 13.9189 31.3034ZM12.5 8.76833C14.6183 8.76833 16.3347 10.5078 16.3347 12.6545C16.3347 14.8013 14.6183 16.5407 12.5 16.5407C10.3817 16.5407 8.66533 14.8013 8.66533 12.6545C8.66533 10.5078 10.3817 8.76833 12.5 8.76833Z" stroke="black" stroke-width="2" stroke-miterlimit="10"/>
</svg>
