<svg width="39" height="31" viewBox="0 0 39 31" fill="none" xmlns="http://www.w3.org/2000/svg">
<path id="Vector" d="M3.60312 2.66852L3.13109 3.0989L3.66224 3.45375L19.2222 13.8491L19.5 14.0347L19.7778 13.8491L35.3378 3.45375L35.8689 3.0989L35.3969 2.66852C34.6234 1.96332 33.6228 1.56667 32.5 1.56667H6.5C5.37721 1.56667 4.37658 1.96332 3.60312 2.66852ZM3.03841 4.29669L2.50252 3.93744L2.28835 4.54602C2.11154 5.04846 2 5.6212 2 6.2V24.8C2 26.0236 2.47026 27.2003 3.31227 28.0704C4.15483 28.9411 5.30114 29.4333 6.5 29.4333H32.5C33.6989 29.4333 34.8452 28.9411 35.6877 28.0704C36.5297 27.2003 37 26.0236 37 24.8V6.2C37 5.6212 36.8885 5.04846 36.7116 4.54602L36.4975 3.93744L35.9616 4.29669L19.5 15.332L3.03841 4.29669ZM6.5 0.5H32.5C33.9533 0.5 35.3505 1.09641 36.3833 2.16365C37.4167 3.23144 38 4.68307 38 6.2V24.8C38 26.3169 37.4167 27.7686 36.3833 28.8364C35.3505 29.9036 33.9533 30.5 32.5 30.5H6.5C5.0467 30.5 3.64947 29.9036 2.61666 28.8364C1.58331 27.7686 1 26.3169 1 24.8V6.2C1 4.68307 1.58331 3.23144 2.61666 2.16365C3.64947 1.09641 5.0467 0.5 6.5 0.5Z" fill="black" stroke="black"/>
</svg>
