<svg width="34" height="33" viewBox="0 0 34 33" fill="none" xmlns="http://www.w3.org/2000/svg">
<path id="Vector" d="M11.4807 2.48898C11.0169 1.36485 9.7836 0.76459 8.61037 1.08655L3.28441 2.53809C2.23123 2.82731 1.5 3.78772 1.5 4.87365C1.5 19.8529 13.6471 32 28.6264 32C29.7177 32 30.6727 31.2688 30.9619 30.2156L32.4134 24.8896C32.7354 23.7164 32.1352 22.4831 31.011 22.0193L25.1994 19.5964C24.2117 19.1872 23.0657 19.4709 22.3945 20.3004L19.9498 23.2853C15.688 21.2662 12.2338 17.8175 10.2202 13.5556L13.2051 11.1164C14.0345 10.4397 14.3183 9.29921 13.909 8.31151L11.4862 2.49989L11.4807 2.48898Z" stroke="black" stroke-width="2" stroke-miterlimit="10"/>
</svg>
